<svg width="45" height="45" viewBox="0 0 45 45" fill="none" xmlns="http://www.w3.org/2000/svg">
<path d="M36.5643 18.2786C36.5643 22.3122 35.2547 26.0382 33.0485 29.0612L44.176 40.1953C45.2747 41.2938 45.2747 43.0777 44.176 44.1761C43.0773 45.2746 41.293 45.2746 40.1943 44.1761L29.0669 33.042C26.0433 35.2566 22.3165 36.5571 18.2821 36.5571C8.18302 36.5571 0 28.3757 0 18.2786C0 8.18142 8.18302 0 18.2821 0C28.3813 0 36.5643 8.18142 36.5643 18.2786ZM18.2821 30.933C19.9443 30.933 21.5901 30.6057 23.1257 29.9697C24.6613 29.3338 26.0566 28.4016 27.2319 27.2266C28.4072 26.0515 29.3395 24.6565 29.9756 23.1212C30.6116 21.5859 30.939 19.9404 30.939 18.2786C30.939 16.6168 30.6116 14.9712 29.9756 13.4359C29.3395 11.9006 28.4072 10.5056 27.2319 9.33056C26.0566 8.15549 24.6613 7.22338 23.1257 6.58743C21.5901 5.95149 19.9443 5.62418 18.2821 5.62418C16.62 5.62418 14.9742 5.95149 13.4386 6.58743C11.903 7.22338 10.5077 8.15549 9.33239 9.33056C8.15709 10.5056 7.22479 11.9006 6.58872 13.4359C5.95265 14.9712 5.62527 16.6168 5.62527 18.2786C5.62527 19.9404 5.95265 21.5859 6.58872 23.1212C7.22479 24.6565 8.15709 26.0515 9.33239 27.2266C10.5077 28.4016 11.903 29.3338 13.4386 29.9697C14.9742 30.6057 16.62 30.933 18.2821 30.933Z" fill="black"/>
</svg>
