<svg width="9" height="31" viewBox="0 0 9 31" fill="none" xmlns="http://www.w3.org/2000/svg">
<path d="M4.5 22.6094C3.45571 22.6094 2.45419 23.0127 1.71577 23.7306C0.977343 24.4485 0.5625 25.4222 0.5625 26.4375C0.5625 27.4528 0.977343 28.4265 1.71577 29.1444C2.45419 29.8623 3.45571 30.2656 4.5 30.2656C5.54429 30.2656 6.54581 29.8623 7.28423 29.1444C8.02266 28.4265 8.4375 27.4528 8.4375 26.4375C8.4375 25.4222 8.02266 24.4485 7.28423 23.7306C6.54581 23.0127 5.54429 22.6094 4.5 22.6094ZM4.5 11.6719C3.45571 11.6719 2.45419 12.0752 1.71577 12.7931C0.977343 13.511 0.5625 14.4847 0.5625 15.5C0.5625 16.5153 0.977343 17.489 1.71577 18.2069C2.45419 18.9248 3.45571 19.3281 4.5 19.3281C5.54429 19.3281 6.54581 18.9248 7.28423 18.2069C8.02266 17.489 8.4375 16.5153 8.4375 15.5C8.4375 14.4847 8.02266 13.511 7.28423 12.7931C6.54581 12.0752 5.54429 11.6719 4.5 11.6719ZM8.4375 4.5625C8.4375 3.54722 8.02266 2.57352 7.28423 1.85561C6.54581 1.13769 5.54429 0.734375 4.5 0.734375C3.45571 0.734375 2.45419 1.13769 1.71577 1.85561C0.977343 2.57352 0.5625 3.54722 0.5625 4.5625C0.5625 5.57778 0.977343 6.55148 1.71577 7.26939C2.45419 7.98731 3.45571 8.39062 4.5 8.39062C5.54429 8.39062 6.54581 7.98731 7.28423 7.26939C8.02266 6.55148 8.4375 5.57778 8.4375 4.5625Z" fill="#003C9D"/>
</svg>
