<svg width="45" height="45" viewBox="0 0 45 45" fill="none" xmlns="http://www.w3.org/2000/svg">
<path d="M22.586 21.0938V1.45898C22.586 0.667969 23.1672 0 23.9146 0C34.1862 0 42.5148 8.81543 42.5148 19.6875C42.5148 20.4785 41.8837 21.0938 41.1364 21.0938H22.586ZM0 23.9062C0 13.2451 7.4816 4.4209 17.1886 3.01465C17.9525 2.90039 18.6002 3.55078 18.6002 4.36816V25.3125L31.5954 39.0674C32.1518 39.6562 32.1103 40.623 31.4709 41.0977C28.2159 43.5586 24.2301 45 19.9288 45C8.92644 45 0 35.5605 0 23.9062ZM43.7105 25.3125C44.4827 25.3125 45.0889 25.998 44.9893 26.8066C44.3499 31.7197 42.1162 36.0879 38.8528 39.3135C38.3546 39.8057 37.5741 39.7705 37.0925 39.252L23.9146 25.3125H43.7105Z" fill="#010101"/>
</svg>
