<svg width="45" height="45" viewBox="0 0 45 45" fill="none" xmlns="http://www.w3.org/2000/svg">
<path d="M44.0558 31.7584C45.3114 32.8569 45.3114 34.6409 44.0558 35.7394L34.4129 44.1761C33.1574 45.2746 31.1183 45.2746 29.8627 44.1761C28.6071 43.0776 28.6071 41.2936 29.8627 40.195L34.0212 36.5567H3.21429C1.43638 36.5567 0 35.3 0 33.7445C0 32.189 1.43638 30.9323 3.21429 30.9323H34.0212L29.8627 27.294C28.6071 26.1954 28.6071 24.4114 29.8627 23.3129C31.1183 22.2144 33.1574 22.2144 34.4129 23.3129L44.0558 31.7496V31.7584ZM10.577 0.823895C11.8326 -0.274632 13.8717 -0.274632 15.1272 0.823895C16.3828 1.92242 16.3828 3.70642 15.1272 4.80495L10.9788 8.43448H41.7857C43.5636 8.43448 45 9.69119 45 11.2467C45 12.8022 43.5636 14.0589 41.7857 14.0589H10.9788L15.1373 17.6972C16.3929 18.7958 16.3929 20.5798 15.1373 21.6783C13.8817 22.7768 11.8426 22.7768 10.5871 21.6783L0.944196 13.2416C-0.311384 12.1431 -0.311384 10.3591 0.944196 9.26057L10.5871 0.823895H10.577Z" fill="black"/>
</svg>
