<svg width="45" height="39" viewBox="0 0 45 39" fill="none" xmlns="http://www.w3.org/2000/svg">
<path d="M44.1232 19.3549C44.1232 20.7184 42.9961 21.7866 41.7188 21.7866H39.3143L39.3669 33.9222C39.3669 34.1267 39.3519 34.3313 39.3293 34.5358V35.763C39.3293 37.4371 37.9843 38.7931 36.3237 38.7931H35.1215C35.0389 38.7931 34.9562 38.7931 34.8736 38.7855C34.7684 38.7931 34.6632 38.7931 34.558 38.7931L32.1159 38.7855H30.3126C28.652 38.7855 27.307 37.4296 27.307 35.7554V33.9373V29.0891C27.307 27.7483 26.2325 26.6651 24.9025 26.6651H20.0936C18.7636 26.6651 17.6891 27.7483 17.6891 29.0891V33.9373V35.7554C17.6891 37.4296 16.3441 38.7855 14.6835 38.7855H12.8802H10.4832C10.3705 38.7855 10.2578 38.778 10.1451 38.7704C10.0549 38.778 9.96477 38.7855 9.8746 38.7855H8.67236C7.01178 38.7855 5.66678 37.4296 5.66678 35.7554V27.2711C5.66678 27.2029 5.66678 27.1271 5.67429 27.059V21.779H3.26982C1.91731 21.779 0.865356 20.7184 0.865356 19.3473C0.865356 18.6655 1.09078 18.0595 1.61675 17.5292L20.875 0.606024C21.401 0.075753 22.0021 0 22.5281 0C23.0541 0 23.6552 0.151506 24.106 0.530271L43.2967 17.5368C43.8978 18.0671 44.1984 18.6731 44.1232 19.3549Z" fill="black"/>
</svg>
